<svg width="1236" height="120" viewBox="0 0 1236 120" fill="none" xmlns="http://www.w3.org/2000/svg">
<path d="M46.456 3.39999C59.512 3.39999 69.8373 6.68533 77.432 13.256C85.0267 19.7413 88.824 29.0427 88.824 41.16H61.816C61.816 36.04 60.4507 31.9867 57.72 29C55.0747 26.0133 51.2773 24.52 46.328 24.52C40.6107 24.52 36.3867 26.312 33.656 29.896C31.0107 33.48 29.688 38.472 29.688 44.872V53.064C29.688 59.3787 31.0107 64.3707 33.656 68.04C36.3867 71.624 40.5253 73.416 46.072 73.416C51.5333 73.416 55.672 72.008 58.488 69.192C61.304 66.376 62.712 62.408 62.712 57.288H88.824C88.824 69.32 85.112 78.536 77.688 84.936C70.3493 91.336 59.9387 94.536 46.456 94.536C31.4373 94.536 20.0453 90.696 12.28 83.016C4.6 75.336 0.76 63.9867 0.76 48.968C0.76 33.9493 4.6 22.6 12.28 14.92C20.0453 7.24 31.4373 3.39999 46.456 3.39999ZM127.777 32.456C130.508 29.7253 133.708 27.6347 137.377 26.184C141.046 24.648 144.886 23.88 148.897 23.88C156.748 23.88 162.636 26.056 166.561 30.408C170.486 34.76 172.449 41.032 172.449 49.224V93H146.977V52.296C146.977 49.3947 146.209 47.0907 144.673 45.384C143.222 43.592 141.132 42.696 138.401 42.696C135.244 42.696 132.684 43.72 130.721 45.768C128.758 47.816 127.777 50.3333 127.777 53.32V93H102.305V0.199997H127.777V32.456ZM221.088 23.88C231.413 23.88 239.819 25.6293 246.304 29.128C252.789 32.5413 256.032 38.1307 256.032 45.896V72.264C256.032 73.7147 256.373 74.9093 257.056 75.848C257.739 76.7867 258.763 77.256 260.128 77.256H264.736V91.976C264.48 92.1467 263.797 92.4453 262.688 92.872C261.664 93.2133 260.171 93.5547 258.208 93.896C256.245 94.3227 253.984 94.536 251.424 94.536C246.475 94.536 242.379 93.8107 239.136 92.36C235.979 90.824 233.803 88.7333 232.608 86.088C229.365 88.648 225.739 90.696 221.728 92.232C217.717 93.768 213.024 94.536 207.648 94.536C191.776 94.536 183.84 88.2213 183.84 75.592C183.84 69.0213 185.589 64.0293 189.088 60.616C192.672 57.1173 197.792 54.728 204.448 53.448C211.104 52.168 219.808 51.528 230.56 51.528V48.2C230.56 45.5547 229.621 43.5493 227.744 42.184C225.952 40.8187 223.605 40.136 220.704 40.136C218.059 40.136 215.755 40.6053 213.792 41.544C211.915 42.4827 210.976 43.976 210.976 46.024V46.536H185.888C185.803 46.1093 185.76 45.512 185.76 44.744C185.76 38.344 188.789 33.2667 194.848 29.512C200.992 25.7573 209.739 23.88 221.088 23.88ZM230.56 63.56C223.307 63.56 217.931 64.3707 214.432 65.992C211.019 67.528 209.312 69.6187 209.312 72.264C209.312 76.5307 212.213 78.664 218.016 78.664C221.344 78.664 224.245 77.768 226.72 75.976C229.28 74.184 230.56 71.9653 230.56 69.32V63.56ZM315.986 25.416V42.696H301.65V68.424C301.65 71.496 302.162 73.7573 303.186 75.208C304.21 76.5733 306.087 77.256 308.818 77.256H315.986V92.232C313.938 92.9147 311.293 93.4693 308.05 93.896C304.807 94.3227 301.991 94.536 299.602 94.536C292.093 94.536 286.29 93.1707 282.194 90.44C278.183 87.7093 276.178 83.0587 276.178 76.488V42.696H266.706V25.416H277.202L282.706 4.936H301.65V25.416H315.986ZM438.398 93L427.006 39.368H426.494L415.102 93H383.998L363.39 4.936H392.83L402.942 54.856H403.454L413.438 4.936H441.342L451.966 54.856H452.478L461.95 4.936H490.11L469.502 93H438.398ZM503.576 17.48V0.199997H529.048V17.48H503.576ZM503.576 93V25.416H529.048V93H503.576ZM590.361 25.416V42.696H576.025V68.424C576.025 71.496 576.537 73.7573 577.561 75.208C578.585 76.5733 580.462 77.256 583.193 77.256H590.361V92.232C588.313 92.9147 585.668 93.4693 582.425 93.896C579.182 94.3227 576.366 94.536 573.977 94.536C566.468 94.536 560.665 93.1707 556.569 90.44C552.558 87.7093 550.553 83.0587 550.553 76.488V42.696H541.081V25.416H551.577L557.081 4.936H576.025V25.416H590.361ZM627.652 32.456C630.383 29.7253 633.583 27.6347 637.252 26.184C640.921 24.648 644.761 23.88 648.772 23.88C656.623 23.88 662.511 26.056 666.436 30.408C670.361 34.76 672.324 41.032 672.324 49.224V93H646.852V52.296C646.852 49.3947 646.084 47.0907 644.548 45.384C643.097 43.592 641.007 42.696 638.276 42.696C635.119 42.696 632.559 43.72 630.596 45.768C628.633 47.816 627.652 50.3333 627.652 53.32V93H602.18V0.199997H627.652V32.456ZM790.98 93L787.268 80.584H756.42L752.708 93H723.78L755.908 4.936H788.804L820.932 93H790.98ZM762.308 60.872H781.38L772.164 29.512H771.652L762.308 60.872ZM876.397 23.88C884.248 23.88 890.136 26.056 894.061 30.408C897.986 34.76 899.949 41.032 899.949 49.224V93H874.477V52.296C874.477 49.3947 873.709 47.0907 872.173 45.384C870.722 43.592 868.632 42.696 865.901 42.696C862.744 42.696 860.184 43.72 858.221 45.768C856.258 47.816 855.277 50.3333 855.277 53.32V93H829.805V25.416H850.669L852.333 35.656C854.978 32.072 858.434 29.2133 862.701 27.08C867.053 24.9467 871.618 23.88 876.397 23.88ZM961.644 90.952C958.145 100.424 953.836 107.592 948.716 112.456C943.681 117.405 936.599 119.88 927.468 119.88C921.921 119.88 917.015 119.112 912.748 117.576V102.344H922.988C929.388 102.344 933.185 99.2293 934.38 93L907.5 25.416H934.892L947.82 70.344H948.716L960.62 25.416H985.708L961.644 90.952ZM1026.25 23.88C1038.11 23.88 1047.41 26.9093 1054.15 32.968C1060.98 38.9413 1064.39 47.688 1064.39 59.208C1064.39 70.728 1060.98 79.5173 1054.15 85.576C1047.41 91.5493 1038.11 94.536 1026.25 94.536C1014.39 94.536 1005.09 91.5493 998.345 85.576C991.604 79.6027 988.233 70.8133 988.233 59.208C988.233 47.6027 991.604 38.8133 998.345 32.84C1005.09 26.8667 1014.39 23.88 1026.25 23.88ZM1026.25 41.16C1017.89 41.16 1013.71 45.9813 1013.71 55.624V62.92C1013.71 72.4773 1017.89 77.256 1026.25 77.256C1034.7 77.256 1038.92 72.4773 1038.92 62.92V55.624C1038.92 45.9813 1034.7 41.16 1026.25 41.16ZM1123.27 23.88C1131.12 23.88 1137.01 26.056 1140.94 30.408C1144.86 34.76 1146.82 41.032 1146.82 49.224V93H1121.35V52.296C1121.35 49.3947 1120.58 47.0907 1119.05 45.384C1117.6 43.592 1115.51 42.696 1112.78 42.696C1109.62 42.696 1107.06 43.72 1105.1 45.768C1103.13 47.816 1102.15 50.3333 1102.15 53.32V93H1076.68V25.416H1097.54L1099.21 35.656C1101.85 32.072 1105.31 29.2133 1109.58 27.08C1113.93 24.9467 1118.49 23.88 1123.27 23.88ZM1197 23.88C1209.37 23.88 1218.8 26.7813 1225.29 32.584C1231.86 38.3867 1235.14 47.2613 1235.14 59.208V63.56H1184.46C1184.46 68.424 1185.52 72.0933 1187.66 74.568C1189.87 77.0427 1193.33 78.28 1198.02 78.28C1202.29 78.28 1205.4 77.384 1207.37 75.592C1209.42 73.8 1210.44 71.4107 1210.44 68.424H1235.14C1235.14 76.616 1232.03 83.016 1225.8 87.624C1219.57 92.232 1210.48 94.536 1198.54 94.536C1185.99 94.536 1176.26 91.6347 1169.35 85.832C1162.44 79.944 1158.98 71.0693 1158.98 59.208C1158.98 47.6027 1162.35 38.8133 1169.1 32.84C1175.84 26.8667 1185.14 23.88 1197 23.88ZM1198.02 40.136C1190 40.136 1185.52 43.9333 1184.58 51.528H1209.42C1209.42 48.0293 1208.39 45.256 1206.34 43.208C1204.38 41.16 1201.61 40.136 1198.02 40.136Z" fill="black"/>
</svg>
