<svg width="1073" height="129" viewBox="0 0 1073 129" fill="none" xmlns="http://www.w3.org/2000/svg">
<path d="M43.304 21.456C39.6347 21.456 36.3493 22.1813 33.448 23.632C30.632 25.0827 28.2427 27.1733 26.28 29.904C24.3173 32.5493 22.824 35.792 21.8 39.632C20.8613 43.472 20.392 47.7813 20.392 52.56C20.392 59.0453 21.16 64.592 22.696 69.2C24.3173 73.7227 26.8347 77.1787 30.248 79.568C33.6613 81.9573 38.0133 83.152 43.304 83.152C47.0587 83.152 50.7707 82.7253 54.44 81.872C58.1947 81.0187 62.248 79.824 66.6 78.288V94.544C62.5893 96.1653 58.6213 97.36 54.696 98.128C50.7707 98.896 46.376 99.28 41.512 99.28C32.1253 99.28 24.36 97.36 18.216 93.52C12.1573 89.5947 7.67733 84.1333 4.776 77.136C1.87467 70.0533 0.424 61.8187 0.424 52.432C0.424 45.52 1.36267 39.2053 3.24 33.488C5.11733 27.6853 7.848 22.6933 11.432 18.512C15.1013 14.3307 19.5813 11.088 24.872 8.784C30.248 6.48 36.392 5.328 43.304 5.328C47.8267 5.328 52.3493 5.92533 56.872 7.12C61.48 8.22933 65.8747 9.76533 70.056 11.728L63.784 27.472C60.3707 25.8507 56.9147 24.4427 53.416 23.248C50.0027 22.0533 46.632 21.456 43.304 21.456ZM103.556 20.56C103.556 23.9733 103.428 27.2587 103.172 30.416C103.001 33.5733 102.831 35.792 102.66 37.072H103.684C105.22 34.6827 107.012 32.7627 109.06 31.312C111.108 29.776 113.369 28.6667 115.844 27.984C118.404 27.216 121.092 26.832 123.908 26.832C128.943 26.832 133.337 27.728 137.092 29.52C140.847 31.312 143.748 34.0853 145.796 37.84C147.929 41.5947 148.996 46.4587 148.996 52.432V98H129.924V57.168C129.924 52.1333 128.985 48.3787 127.108 45.904C125.316 43.344 122.5 42.064 118.66 42.064C114.82 42.064 111.791 42.96 109.572 44.752C107.439 46.544 105.903 49.1467 104.964 52.56C104.025 55.9733 103.556 60.1547 103.556 65.104V98H84.484V0.719994H103.556V20.56ZM197.281 26.704C206.668 26.704 213.836 28.752 218.785 32.848C223.82 36.8587 226.337 43.0453 226.337 51.408V98H213.025L209.313 88.528H208.801C206.838 91.0027 204.79 93.0507 202.657 94.672C200.609 96.2933 198.22 97.4453 195.489 98.128C192.844 98.896 189.558 99.28 185.633 99.28C181.537 99.28 177.825 98.512 174.497 96.976C171.254 95.3547 168.694 92.9227 166.817 89.68C164.94 86.352 164.001 82.1707 164.001 77.136C164.001 69.712 166.604 64.2507 171.809 60.752C177.014 57.168 184.822 55.2053 195.233 54.864L207.393 54.48V51.408C207.393 47.7387 206.412 45.0507 204.449 43.344C202.572 41.6373 199.926 40.784 196.513 40.784C193.1 40.784 189.772 41.296 186.529 42.32C183.286 43.2587 180.044 44.4533 176.801 45.904L170.529 32.976C174.284 31.0133 178.422 29.4773 182.945 28.368C187.553 27.2587 192.332 26.704 197.281 26.704ZM199.969 65.872C193.825 66.0427 189.558 67.152 187.169 69.2C184.78 71.248 183.585 73.936 183.585 77.264C183.585 80.1653 184.438 82.256 186.145 83.536C187.852 84.7307 190.07 85.328 192.801 85.328C196.897 85.328 200.353 84.1333 203.169 81.744C205.985 79.2693 207.393 75.8133 207.393 71.376V65.616L199.969 65.872ZM275.299 84.048C277.432 84.048 279.48 83.8347 281.443 83.408C283.406 82.9813 285.368 82.4693 287.331 81.872V96.08C285.283 96.9333 282.723 97.6587 279.651 98.256C276.664 98.9387 273.379 99.28 269.795 99.28C265.614 99.28 261.859 98.5973 258.531 97.232C255.288 95.8667 252.686 93.52 250.723 90.192C248.846 86.7787 247.907 82.0853 247.907 76.112V42.448H238.819V34.384L249.315 27.984L254.819 13.264H266.979V28.112H286.563V42.448H266.979V76.112C266.979 78.7573 267.747 80.7627 269.283 82.128C270.819 83.408 272.824 84.048 275.299 84.048ZM415.151 6.60799L391.855 98H369.839L357.423 50C357.167 49.0613 356.826 47.6533 356.399 45.776C356.058 43.8987 355.631 41.8507 355.119 39.632C354.692 37.4133 354.308 35.3227 353.967 33.36C353.626 31.312 353.37 29.7333 353.199 28.624C353.114 29.7333 352.858 31.312 352.431 33.36C352.09 35.3227 351.706 37.4133 351.279 39.632C350.852 41.7653 350.426 43.8133 349.999 45.776C349.572 47.6533 349.231 49.104 348.975 50.128L336.687 98H314.671L291.375 6.60799H310.447L322.095 56.528C322.436 57.9787 322.82 59.7707 323.247 61.904C323.674 63.952 324.1 66.128 324.527 68.432C324.954 70.6507 325.338 72.8267 325.679 74.96C326.106 77.0933 326.404 78.928 326.575 80.464C326.746 78.8427 327.002 77.008 327.343 74.96C327.684 72.8267 328.068 70.6933 328.495 68.56C328.922 66.3413 329.306 64.2933 329.647 62.416C330.074 60.4533 330.458 58.9173 330.799 57.808L344.111 6.60799H362.415L375.727 57.808C375.983 58.9173 376.324 60.4533 376.751 62.416C377.178 64.2933 377.604 66.3413 378.031 68.56C378.458 70.7787 378.842 72.9547 379.183 75.088C379.524 77.136 379.78 78.928 379.951 80.464C380.207 78.3307 380.591 75.8133 381.103 72.912C381.615 69.9253 382.17 66.9387 382.767 63.952C383.45 60.9653 384.004 58.4907 384.431 56.528L396.079 6.60799H415.151ZM444.181 28.112V98H425.109V28.112H444.181ZM434.709 0.719994C437.525 0.719994 439.957 1.40266 442.005 2.768C444.053 4.048 445.077 6.48 445.077 10.064C445.077 13.5627 444.053 15.9947 442.005 17.36C439.957 18.7253 437.525 19.408 434.709 19.408C431.808 19.408 429.333 18.7253 427.285 17.36C425.322 15.9947 424.341 13.5627 424.341 10.064C424.341 6.48 425.322 4.048 427.285 2.768C429.333 1.40266 431.808 0.719994 434.709 0.719994ZM493.549 84.048C495.682 84.048 497.73 83.8347 499.693 83.408C501.656 82.9813 503.618 82.4693 505.581 81.872V96.08C503.533 96.9333 500.973 97.6587 497.901 98.256C494.914 98.9387 491.629 99.28 488.045 99.28C483.864 99.28 480.109 98.5973 476.781 97.232C473.538 95.8667 470.936 93.52 468.973 90.192C467.096 86.7787 466.157 82.0853 466.157 76.112V42.448H457.069V34.384L467.565 27.984L473.069 13.264H485.229V28.112H504.813V42.448H485.229V76.112C485.229 78.7573 485.997 80.7627 487.533 82.128C489.069 83.408 491.074 84.048 493.549 84.048ZM538.681 20.56C538.681 23.9733 538.553 27.2587 538.297 30.416C538.126 33.5733 537.956 35.792 537.785 37.072H538.809C540.345 34.6827 542.137 32.7627 544.185 31.312C546.233 29.776 548.494 28.6667 550.969 27.984C553.529 27.216 556.217 26.832 559.033 26.832C564.068 26.832 568.462 27.728 572.217 29.52C575.972 31.312 578.873 34.0853 580.921 37.84C583.054 41.5947 584.121 46.4587 584.121 52.432V98H565.049V57.168C565.049 52.1333 564.11 48.3787 562.233 45.904C560.441 43.344 557.625 42.064 553.785 42.064C549.945 42.064 546.916 42.96 544.697 44.752C542.564 46.544 541.028 49.1467 540.089 52.56C539.15 55.9733 538.681 60.1547 538.681 65.104V98H519.609V0.719994H538.681V20.56ZM661.206 98L654.55 76.24H621.27L614.614 98H593.75L626.006 6.224H649.686L682.07 98H661.206ZM643.286 38.736C642.859 37.2853 642.305 35.4507 641.622 33.232C640.939 31.0133 640.257 28.752 639.574 26.448C638.891 24.144 638.337 22.1387 637.91 20.432C637.483 22.1387 636.886 24.272 636.118 26.832C635.435 29.3067 634.753 31.696 634.07 34C633.473 36.2187 633.003 37.7973 632.662 38.736L626.134 59.984H649.942L643.286 38.736ZM731.789 26.832C739.298 26.832 745.314 28.88 749.837 32.976C754.36 36.9867 756.621 43.472 756.621 52.432V98H737.549V57.168C737.549 52.1333 736.653 48.3787 734.861 45.904C733.069 43.344 730.21 42.064 726.285 42.064C720.482 42.064 716.514 44.0693 714.381 48.08C712.248 52.0053 711.181 57.68 711.181 65.104V98H692.109V28.112H706.701L709.261 37.072H710.285C711.821 34.6827 713.698 32.7627 715.917 31.312C718.136 29.776 720.61 28.6667 723.341 27.984C726.072 27.216 728.888 26.832 731.789 26.832ZM766.25 28.112H787.114L800.298 67.408C800.725 68.688 801.066 69.968 801.322 71.248C801.663 72.528 801.919 73.8507 802.09 75.216C802.346 76.5813 802.517 78.032 802.602 79.568H802.986C803.242 77.3493 803.583 75.2587 804.01 73.296C804.522 71.248 805.077 69.2853 805.674 67.408L818.602 28.112H839.082L809.514 106.96C807.722 111.739 805.375 115.749 802.474 118.992C799.658 122.235 796.373 124.667 792.618 126.288C788.863 127.909 784.767 128.72 780.33 128.72C778.197 128.72 776.319 128.592 774.698 128.336C773.162 128.165 771.797 127.952 770.602 127.696V112.592C771.541 112.763 772.65 112.933 773.93 113.104C775.295 113.275 776.703 113.36 778.154 113.36C780.799 113.36 783.061 112.805 784.938 111.696C786.901 110.587 788.522 109.051 789.802 107.088C791.082 105.211 792.106 103.163 792.874 100.944L794.026 97.488L766.25 28.112ZM912.597 62.928C912.597 68.7307 911.786 73.8933 910.165 78.416C908.629 82.9387 906.368 86.7787 903.381 89.936C900.48 93.008 896.938 95.3547 892.757 96.976C888.576 98.512 883.84 99.28 878.549 99.28C873.685 99.28 869.162 98.512 864.981 96.976C860.885 95.3547 857.344 93.008 854.357 89.936C851.37 86.7787 849.024 82.9387 847.317 78.416C845.696 73.8933 844.885 68.7307 844.885 62.928C844.885 55.1627 846.25 48.6347 848.981 43.344C851.712 37.968 855.637 33.872 860.757 31.056C865.877 28.24 871.936 26.832 878.933 26.832C885.504 26.832 891.306 28.24 896.341 31.056C901.376 33.872 905.344 37.968 908.245 43.344C911.146 48.6347 912.597 55.1627 912.597 62.928ZM864.341 62.928C864.341 67.536 864.81 71.4187 865.749 74.576C866.773 77.648 868.352 79.9947 870.485 81.616C872.618 83.152 875.392 83.92 878.805 83.92C882.218 83.92 884.949 83.152 886.997 81.616C889.13 79.9947 890.666 77.648 891.605 74.576C892.629 71.4187 893.141 67.536 893.141 62.928C893.141 58.32 892.629 54.48 891.605 51.408C890.666 48.336 889.13 46.032 886.997 44.496C884.864 42.96 882.09 42.192 878.677 42.192C873.642 42.192 869.973 43.9413 867.669 47.44C865.45 50.8533 864.341 56.016 864.341 62.928ZM968.039 26.832C975.548 26.832 981.564 28.88 986.087 32.976C990.61 36.9867 992.871 43.472 992.871 52.432V98H973.799V57.168C973.799 52.1333 972.903 48.3787 971.111 45.904C969.319 43.344 966.46 42.064 962.535 42.064C956.732 42.064 952.764 44.0693 950.631 48.08C948.498 52.0053 947.431 57.68 947.431 65.104V98H928.359V28.112H942.951L945.511 37.072H946.535C948.071 34.6827 949.948 32.7627 952.167 31.312C954.386 29.776 956.86 28.6667 959.591 27.984C962.322 27.216 965.138 26.832 968.039 26.832ZM1041.28 26.832C1047.77 26.832 1053.32 28.0693 1057.92 30.544C1062.62 33.0187 1066.24 36.6027 1068.8 41.296C1071.36 45.9893 1072.64 51.7493 1072.64 58.576V67.792H1027.59C1027.76 73.168 1029.34 77.392 1032.32 80.464C1035.4 83.536 1039.62 85.072 1045 85.072C1049.52 85.072 1053.61 84.6453 1057.28 83.792C1060.95 82.8533 1064.75 81.4453 1068.68 79.568V94.288C1065.26 95.9947 1061.64 97.232 1057.8 98C1054.04 98.8533 1049.48 99.28 1044.1 99.28C1037.1 99.28 1030.92 98 1025.54 95.44C1020.16 92.7947 1015.94 88.8267 1012.87 83.536C1009.8 78.2453 1008.26 71.5893 1008.26 63.568C1008.26 55.376 1009.63 48.592 1012.36 43.216C1015.17 37.7547 1019.05 33.6587 1024 30.928C1028.95 28.1973 1034.71 26.832 1041.28 26.832ZM1041.41 40.4C1037.74 40.4 1034.67 41.5947 1032.2 43.984C1029.81 46.3733 1028.4 50.0853 1027.97 55.12H1054.72C1054.72 52.304 1054.21 49.7867 1053.19 47.568C1052.25 45.3493 1050.8 43.6 1048.84 42.32C1046.87 41.04 1044.4 40.4 1041.41 40.4Z" fill="white"/>
</svg>
